<svg width="24" height="24" viewBox="0 0 24 24" fill="none" xmlns="http://www.w3.org/2000/svg">
<path fill-rule="evenodd" clip-rule="evenodd" d="M16 6H20C21.11 6 22 6.89 22 8V19C22 20.11 21.11 21 20 21H4C2.89 21 2 20.11 2 19L2.01 8C2.01 6.89 2.89 6 4 6H8V4C8 2.89 8.89 2 10 2H14C15.11 2 16 2.89 16 4V6ZM10 6H14V4H10V6ZM6.83098 9.88299L6.38827 12.4788C5.85382 12.6861 5.50057 13.213 5.50056 13.8108L5.50049 18C5.50048 18.5522 5.9482 19 6.50049 19H7.00047C7.55275 19 8.00047 18.5523 8.00047 18V17.5H16.0005V18C16.0005 18.5523 16.4482 19 17.0005 19H17.5005C18.0528 19 18.5005 18.5523 18.5005 18L18.5006 13.8108C18.5006 13.2125 18.1467 12.6852 17.6115 12.4783L17.1685 9.88277C17.0449 9.15887 16.4728 8.56816 15.7102 8.47249C14.9456 8.37659 13.6286 8.25 11.9997 8.25C10.3709 8.25 9.0539 8.37658 8.28933 8.47248C7.52659 8.56815 6.95447 9.15899 6.83098 9.88299ZM11.9997 9.75C10.4464 9.75 9.1932 9.87086 8.47602 9.96082C8.40298 9.96998 8.32777 10.0288 8.30963 10.1352L7.95243 12.2296C9.03319 12.1057 10.4186 12 12.0005 12C13.5818 12 14.9667 12.1056 16.0474 12.2294L15.6899 10.1352C15.6717 10.0288 15.5965 9.96999 15.5235 9.96083C14.8063 9.87087 13.5531 9.75 11.9997 9.75ZM15 15.5V14.4412L17.5 13.9412V14.9999L15 15.5ZM9 15.5V14.5294L6.5 14V14.9706L9 15.5Z" fill="#4f52ff" fill-opacity="1"/>
</svg>
