<svg width="24" height="24" viewBox="0 0 24 24" fill="none" xmlns="http://www.w3.org/2000/svg">
<path fill-rule="evenodd" clip-rule="evenodd" d="M15 6.41421L13 4.41421L13 16L11 16L11 4.41421L9 6.41421L7.58579 5L11.2929 1.29289C11.6834 0.90237 12.3166 0.90237 12.7071 1.29289L16.4142 5L15 6.41421Z" fill="black" fill-opacity="0.5"/>
<path d="M6 21L6 10L9 10L9 8L6 8C4.89543 8 4 8.89543 4 10L4 21C4 22.1 4.9 23 6 23L18 23C19.1 23 20 22.1 20 21L20 10C20 8.89543 19.1046 8 18 8L15 8L15 10L18 10L18 21L6 21Z" fill="black" fill-opacity="0.5"/>
</svg>
