<svg width="24" height="24" viewBox="0 0 24 24" fill="none" xmlns="http://www.w3.org/2000/svg">
<path fill-rule="evenodd" clip-rule="evenodd" d="M12 20C16.4183 20 20 16.4183 20 12C20 7.58172 16.4183 4 12 4C7.58172 4 4 7.58172 4 12C4 16.4183 7.58172 20 12 20ZM12 22C17.5228 22 22 17.5228 22 12C22 6.47715 17.5228 2 12 2C6.47715 2 2 6.47715 2 12C2 17.5228 6.47715 22 12 22Z" fill="black" fill-opacity="0.5"/>
<path d="M12.7251 13.8126V13.7168C12.7251 12.2257 15 11.87 15 9.7223C15 8.08071 13.8483 7 11.9147 7C10.7488 7 9.72512 7.43776 9 8.02599L9.95261 9.47606C10.4787 9.1067 11.0758 8.81943 11.7156 8.81943C12.4265 8.81943 12.9668 9.2435 12.9668 9.94118C12.9668 11.2818 10.9336 11.528 10.9336 13.5663V13.8126H12.7251ZM11.8294 17C12.4834 17 13.0379 16.4938 13.0379 15.8098C13.0379 15.1806 12.4834 14.6744 11.8294 14.6744C11.1754 14.6744 10.6209 15.1943 10.6209 15.8098C10.6209 16.4938 11.1754 17 11.8294 17Z" fill="black" fill-opacity="0.5"/>
</svg>
