<svg width="24" height="24" viewBox="0 0 24 24" fill="none" xmlns="http://www.w3.org/2000/svg">
<path fill-rule="evenodd" clip-rule="evenodd" d="M8.41421 10L11 12.5858L11 3L13 3L13 12.5858L15.5858 10L17 11.4142L12.7071 15.7071C12.3166 16.0976 11.6834 16.0976 11.2929 15.7071L7 11.4142L8.41421 10Z" fill="black" fill-opacity="0.5"/>
<path d="M18 21C19.6569 21 21 19.6569 21 18L21 12C20.3333 12 19.6667 12 19 12L19 18C19 18.5523 18.5523 19 18 19L6 19C5.44772 19 5 18.5523 5 18L5 12L3 12L3 18C3 19.6569 4.34314 21 6 21L18 21Z" fill="black" fill-opacity="0.5"/>
</svg>
