<svg width="24" height="24" viewBox="0 0 24 24" fill="none" xmlns="http://www.w3.org/2000/svg">
<path fill-rule="evenodd" clip-rule="evenodd" d="M9.18056 1H14.8202L15.5899 4.84882C15.869 4.98915 16.1387 5.14529 16.3978 5.31603L20.1166 4.05797L22.9365 8.94201L19.9867 11.5344C20.0042 11.8437 20.0042 12.1561 19.9867 12.4655L22.9366 15.058L20.1168 19.942L16.3978 18.6839C16.1387 18.8547 15.869 19.0108 15.5899 19.1512L14.8202 23H9.18056L8.4108 19.1512C8.13168 19.0108 7.86199 18.8547 7.6029 18.6839L3.88389 19.942L1.06409 15.058L4.01407 12.4654C3.99653 12.1561 3.99654 11.8437 4.01408 11.5344L1.06428 8.94203L3.88409 4.05799L7.60296 5.31604C7.86203 5.14529 8.1317 4.98915 8.4108 4.84882L9.18056 1ZM10.8202 3L10.1682 6.25981C9.36007 6.59924 8.64187 7.01553 7.94759 7.54396L4.79633 6.47793L3.61614 8.52209L6.11367 10.717C6.0044 11.5864 6.00487 12.4173 6.11364 13.2829L3.61594 15.4779L4.79614 17.5221L7.94753 16.456C8.49392 16.8719 9.04057 17.2666 9.67895 17.5347L10.1682 17.7402L10.8202 21H13.1806L13.8325 17.7402C14.6407 17.4008 15.3589 16.9845 16.0532 16.456L19.2046 17.5221L20.3848 15.4779L17.8871 13.2829C17.9959 12.4173 17.9963 11.5864 17.8871 10.717L20.3846 8.52207L19.2044 6.47791L16.0531 7.54395C15.3556 7.01304 14.6371 6.59772 13.8325 6.25981L13.1806 3H10.8202ZM12.0007 10C10.8961 10 10.0007 10.8954 10.0007 12C10.0007 13.1046 10.8961 14 12.0007 14C13.1052 14 14.0007 13.1046 14.0007 12C14.0007 10.8954 13.1052 10 12.0007 10ZM8.00066 12C8.00066 9.79086 9.79152 8 12.0007 8C14.2098 8 16.0007 9.79086 16.0007 12C16.0007 14.2091 14.2098 16 12.0007 16C9.79152 16 8.00066 14.2091 8.00066 12Z" fill="black" fill-opacity="0.5"/>
</svg>
