<svg width="24" height="24" viewBox="0 0 24 24" fill="none" xmlns="http://www.w3.org/2000/svg">
<path fill-rule="evenodd" clip-rule="evenodd" d="M15 2H9V4H11V6.06189C7.05369 6.55399 4 9.92038 4 14C4 18.4183 7.58172 22 12 22C16.4183 22 20 18.4183 20 14C20 12.1378 19.3637 10.4242 18.2968 9.06478L20.4142 6.94734L19 5.53313L16.8759 7.65717C15.7752 6.80973 14.4477 6.24242 13 6.06189V4L15 4V2ZM6 14C6 10.6863 8.68629 8 12 8C15.3137 8 18 10.6863 18 14C18 17.3137 15.3137 20 12 20C8.68629 20 6 17.3137 6 14ZM13.8536 10.5331L10.7322 13.6544L12.1465 15.0687L15.2678 11.9473L13.8536 10.5331Z" fill="#4F52FF" fill-opacity="1"/>
</svg>
