<svg width="24" height="24" viewBox="0 0 24 24" fill="none" xmlns="http://www.w3.org/2000/svg">
<path fill-rule="evenodd" clip-rule="evenodd" d="M13 5.00988C12.6756 5.00348 12.342 5 12 5C8.8889 5 6.47344 5.28792 5.3817 5.44587C4.60625 5.55807 4.00043 6.11657 3.78717 6.83489L2.40656 11.4853C1.57494 11.7326 1 12.5057 1 13.3852V21C1 22.1046 1.89543 23 3 23H5.4C6.50457 23 7.4 22.1046 7.4 21H16.6C16.6 22.1046 17.4954 23 18.6 23H21C22.1046 23 23 22.1046 23 21V13.3852C23 12.8021 22.7473 12.2659 22.3347 11.8985C21.6236 12.3744 20.8304 12.7339 19.9744 12.9429L19.5 13.0587L19.0256 12.9429C17.7221 12.6246 16.5641 11.9574 15.6203 11.0616C14.5167 11.024 13.302 11 12 11C8.93084 11 6.34695 11.1336 4.55865 11.2636L5.69952 7.42073C6.73784 7.2717 9.03804 7 12 7C12.4333 7 12.8524 7.00581 13.2555 7.01621C13.0891 6.36374 13.0009 5.68955 13 5.00988ZM3 14.6V13.4005C4.49431 13.2577 7.77707 13 12 13C16.2229 13 19.5057 13.2577 21 13.4005V14.6L17 15V17L21 16.6V21H18.6V20V19H17.6H6.4H5.4V20V21H3V16.6L7 17V15L3 14.6Z" fill="black" fill-opacity="0.5"/>
<path d="M19.5 0L15 2V5C15 7.775 16.92 10.37 19.5 11C22.08 10.37 24 7.775 24 5V2L19.5 0ZM18.75 8L16.75 6L17.455 5.295L18.75 6.585L22.045 3.29L22.75 4L18.75 8Z" fill="black" fill-opacity="0.5"/>
</svg>
