<svg width="24" height="24" viewBox="0 0 24 24" fill="none" xmlns="http://www.w3.org/2000/svg">
<path fill-rule="evenodd" clip-rule="evenodd" d="M21.9556 5.5C21.9556 5.22386 21.7322 5 21.4567 5H18.3137C17.3345 4.31771 16.1632 3.96729 14.9711 4C14.2641 3.99293 13.5615 4.11143 12.8957 4.35L12.776 3.44C12.746 3.19129 12.537 3.0032 12.2871 3H11.6685C11.4185 3.0032 11.2095 3.19129 11.1796 3.44L11.0598 4.35C10.3941 4.11143 9.69144 3.99293 8.98445 4C7.79234 3.96729 6.62105 4.31771 5.64189 5H2.49889C2.22336 5 2 5.22386 2 5.5V6.5C2 6.77614 2.22336 7 2.49889 7H3.49667L2.06984 12.71C2.02392 12.9545 2.02392 13.2055 2.06984 13.45C2.29879 15.1912 3.7798 16.4927 5.53214 16.4927C7.28448 16.4927 8.76549 15.1912 8.99443 13.45C9.04036 13.2055 9.04036 12.9545 8.99443 12.71L7.31816 6.33C7.84435 6.10409 8.41208 5.99166 8.98445 6C9.68262 5.98176 10.3725 6.15462 10.98 6.5V19H9.48334C9.20781 19 8.98445 19.2239 8.98445 19.5V20.5C8.98445 20.7761 9.20781 21 9.48334 21H14.4722C14.7478 21 14.9711 20.7761 14.9711 20.5V19.5C14.9711 19.2239 14.7478 19 14.4722 19H12.9756V6.5C13.583 6.15462 14.273 5.98176 14.9711 6C15.5435 5.99166 16.1112 6.10409 16.6374 6.33L15.041 12.71C14.995 12.9545 14.995 13.2055 15.041 13.45C15.2699 15.1912 16.7509 16.4927 18.5033 16.4927C20.2556 16.4927 21.7366 15.1912 21.9656 13.45C22.0115 13.2055 22.0115 12.9545 21.9656 12.71L20.4589 7H21.4567C21.7322 7 21.9556 6.77614 21.9556 6.5V5.5ZM3.796 13L5.25276 7.19C5.27669 7.07725 5.37723 6.99748 5.49223 7C5.60722 6.99748 5.70776 7.07725 5.73169 7.19L7.18845 13H3.796ZM18.2239 7.19L16.7671 13H20.1596L18.7028 7.19C18.6789 7.07725 18.5783 6.99748 18.4634 7C18.3484 6.99748 18.2478 7.07725 18.2239 7.19Z" fill="#4F52FF"/>
</svg>
